<svg
   viewBox="0 0 256 256"
   width="256"
   height="256"
   xmlns="http://www.w3.org/2000/svg">
  <title
     id="title844">ICON_TOOLBAR_CHRISTIAN1984_INGAMEPANEL_VFRMAPFORVR</title>
  <circle
     cx="111.75043"
     cy="160.46114"
     r="15.061368" />
  <circle
     cx="182.05374"
     cy="160.46114"
     r="15.061368" />
  <path
     d="m 80.230557,38.736226 c -1.940724,0 -3.877929,0.306238 -5.746129,0.912537 L 30.440251,54.962276 a 9.2847145,9.2847145 0 0 0 -5.831683,8.619199 V 164.04611 c 0,2.66596 2.179792,4.64824 4.633978,4.64824 0.568609,0 1.155121,-0.10634 1.732396,-0.33509 L 71.283417,153.45925 V 138.61627 L 38.53189,150.72164 V 66.896554 L 75.660745,53.978448 v 70.108522 l 6.20953,-6.20954 h 7.71379 V 55.682327 l 37.135985,13.110592 v 49.084511 h 13.92332 V 70.432638 l 0.18538,-0.07131 36.94348,-13.652411 v 61.168523 h 13.92333 V 43.384462 c 0,-2.665956 -2.1827,-4.648236 -4.63398,-4.648236 -0.56867,0 -1.15086,0.10587 -1.72527,0.335073 L 136.00226,57.300653 86.105015,39.684409 a 18.63905,18.63905 0 0 0 -5.874458,-0.948183 z" />
  <path
     d="m 76.715264,110.98249 c -3.881545,0 -7.15013,2.19651 -9.4945,4.71522 -2.34437,2.5187 -3.811324,7.11036 -3.811324,9.29344 v 77.76202 c 0,2.83836 1.303364,7.34714 3.777517,9.89129 2.474152,2.54415 5.085506,4.61914 9.727592,4.61914 h 40.520671 c 3.78709,0 8.68304,-1.77319 11.90193,-3.87894 3.21888,-2.10574 5.88474,-5.52556 7.01945,-7.88955 l 6.88779,-15.44635 c 0,0 2.45902,-3.73075 4.34512,-3.67609 1.88609,0.0547 4.08,3.87716 4.08,3.87716 l 6.75255,15.11184 c 1.22927,2.5531 3.54297,5.50813 6.55327,7.62265 3.0103,2.11451 7.62847,4.27928 11.23291,4.27928 h 41.42101 c 3.68902,0 8.02568,-2.06939 10.33434,-4.71878 2.30865,-2.6494 3.40741,-6.07994 3.40741,-9.38952 v -78.5645 c 0,-2.74874 -1.62124,-7.12435 -4.07288,-9.60126 -2.45164,-2.47692 -6.30872,-3.91249 -9.90197,-4.00705 z m 0.487537,13.87877 H 217.43351 v 78.56094 h -39.82139 c -0.42551,0 -0.82282,-0.0317 -1.19748,-0.0907 -0.37467,-0.059 -0.72724,-0.14544 -1.06404,-0.25622 -0.33681,-0.11078 -0.6578,-0.24523 -0.96973,-0.40035 -0.31194,-0.15512 -0.61453,-0.33104 -0.91458,-0.52312 -0.30005,-0.19209 -0.62529,-0.4843 -0.94483,-0.81494 -0.31953,-0.33063 -0.63321,-0.69966 -0.90923,-1.04446 -0.55205,-0.68961 -0.95372,-1.2829 -0.95372,-1.2829 l -7.2223,-16.11361 c -0.21488,-0.37218 -0.45925,-0.81381 -0.74376,-1.29891 -0.28451,-0.48509 -0.60911,-1.01512 -0.98218,-1.56758 -0.37308,-0.55246 -0.79521,-1.12678 -1.27578,-1.70104 -0.48058,-0.57426 -1.01931,-1.14696 -1.62631,-1.69748 -0.30351,-0.27526 -0.62396,-0.54525 -0.96262,-0.80604 -0.33866,-0.26078 -0.69498,-0.51382 -1.07115,-0.75443 -0.37619,-0.24061 -0.77253,-0.46852 -1.1886,-0.68327 -0.41607,-0.21474 -0.85303,-0.41645 -1.31136,-0.59963 -0.45833,-0.18318 -0.9383,-0.34872 -1.44126,-0.49465 -0.50296,-0.14593 -1.02832,-0.27068 -1.57827,-0.37366 -0.54994,-0.10298 -1.12308,-0.18409 -1.72239,-0.23843 -0.5993,-0.0543 -1.22438,-0.0818 -1.87541,-0.0818 -0.65103,0 -1.27794,0.027 -1.88075,0.0801 -0.60281,0.0531 -1.18188,0.13231 -1.7384,0.2331 -0.55653,0.10078 -1.09102,0.22358 -1.60318,0.36654 -0.51216,0.14295 -1.00178,0.30611 -1.47151,0.48576 -0.46972,0.17964 -0.91949,0.37632 -1.34873,0.58718 -0.42923,0.21085 -0.83708,0.436 -1.22774,0.67258 -0.39066,0.23658 -0.76339,0.48337 -1.11741,0.7402 -0.35403,0.25683 -0.68957,0.52199 -1.00888,0.79358 -0.63862,0.54318 -1.21104,1.1121 -1.7224,1.68146 -0.51134,0.56937 -0.96167,1.14047 -1.36118,1.69215 -0.39951,0.55169 -0.74669,1.08276 -1.04981,1.57293 -0.30311,0.49015 -0.56252,0.93904 -0.78468,1.32381 l -6.75256,15.11185 c 0,0 -0.29647,0.65275 -0.74554,1.43058 -0.22452,0.38892 -0.48751,0.80862 -0.77044,1.19393 -0.28294,0.38531 -0.58602,0.73609 -0.89145,0.98575 -0.30542,0.24966 -0.61268,0.49559 -0.9377,0.72419 -0.32503,0.22859 -0.66747,0.43924 -1.04269,0.6192 -0.37522,0.17997 -0.7842,0.32861 -1.24019,0.43238 -0.456,0.10377 -0.95931,0.1637 -1.52666,0.1637 l -40.232419,-0.14413 z" />
</svg>
